<svg width="37" height="37" viewBox="0 0 37 37" fill="none" xmlns="http://www.w3.org/2000/svg">
<path fill-rule="evenodd" clip-rule="evenodd" d="M18.5 36.9999C28.7173 36.9999 37 28.7172 37 18.4999C37 8.28267 28.7173 -6.10352e-05 18.5 -6.10352e-05C8.28273 -6.10352e-05 0 8.28267 0 18.4999C0 28.7172 8.28273 36.9999 18.5 36.9999ZM17 9.49994C17 8.67151 17.6716 7.99994 18.5 7.99994C19.3284 7.99994 20 8.67151 20 9.49994V16.9999H27.5C28.3284 16.9999 29 17.6715 29 18.4999C29 19.3284 28.3284 19.9999 27.5 19.9999H20V27.4999C20 28.3284 19.3284 28.9999 18.5 28.9999C17.6716 28.9999 17 28.3284 17 27.4999V19.9999H9.5C8.67157 19.9999 8 19.3284 8 18.4999C8 17.6715 8.67157 16.9999 9.5 16.9999H17V9.49994Z" fill="white"/>
</svg>
