<svg width="56" height="41" viewBox="0 0 56 41" fill="none" xmlns="http://www.w3.org/2000/svg">
<rect opacity="0.4" x="14" y="36.9999" width="27" height="4" rx="2" fill="black"/>
<path opacity="0.4" fill-rule="evenodd" clip-rule="evenodd" d="M4 -6.10352e-05C1.79086 -6.10352e-05 0 1.7908 0 3.99994V29.9999C0 32.2091 1.79086 33.9999 4 33.9999H52C54.2091 33.9999 56 32.2091 56 29.9999V3.99994C56 1.7908 54.2091 -6.10352e-05 52 -6.10352e-05H4ZM40 16.9999L22 7.99994V25.9999L40 16.9999Z" fill="black"/>
<mask id="mask0" mask-type="alpha" maskUnits="userSpaceOnUse" x="0" y="0" width="56" height="34">
<path fill-rule="evenodd" clip-rule="evenodd" d="M4 -6.10352e-05C1.79086 -6.10352e-05 0 1.7908 0 3.99994V29.9999C0 32.2091 1.79086 33.9999 4 33.9999H52C54.2091 33.9999 56 32.2091 56 29.9999V3.99994C56 1.7908 54.2091 -6.10352e-05 52 -6.10352e-05H4ZM40 16.9999L22 7.99994V25.9999L40 16.9999Z" fill="white"/>
</mask>
<g mask="url(#mask0)">
</g>
</svg>
